<mxfile host="app.diagrams.net" agent="Mozilla/5.0 (Windows NT 10.0; Win64; x64) AppleWebKit/537.36 (KHTML, like Gecko) Chrome/130.0.0.0 Safari/537.36" version="24.8.2">
  <diagram name="Page-1" id="wXJh2Ujk4fOFyac5_G2R">
    <mxGraphModel dx="1747" dy="493" grid="1" gridSize="10" guides="1" tooltips="1" connect="1" arrows="1" fold="1" page="1" pageScale="1" pageWidth="850" pageHeight="1100" math="0" shadow="0">
      <root>
        <mxCell id="0" />
        <mxCell id="1" parent="0" />
        <mxCell id="ZRoRT4lpdqOZZUP7kBYj-5" style="edgeStyle=orthogonalEdgeStyle;rounded=0;orthogonalLoop=1;jettySize=auto;html=1;exitX=0.5;exitY=1;exitDx=0;exitDy=0;entryX=0.5;entryY=0;entryDx=0;entryDy=0;" parent="1" source="ZRoRT4lpdqOZZUP7kBYj-1" target="ZRoRT4lpdqOZZUP7kBYj-2" edge="1">
          <mxGeometry relative="1" as="geometry" />
        </mxCell>
        <mxCell id="ZRoRT4lpdqOZZUP7kBYj-1" value="&lt;font style=&quot;font-size: 18px;&quot;&gt;start&lt;/font&gt;" style="ellipse;whiteSpace=wrap;html=1;" parent="1" vertex="1">
          <mxGeometry x="219.89" y="20" width="120" height="80" as="geometry" />
        </mxCell>
        <mxCell id="R-SLLqxYbJGO4KXh2v5R-2" value="" style="edgeStyle=orthogonalEdgeStyle;rounded=0;orthogonalLoop=1;jettySize=auto;html=1;" parent="1" source="ZRoRT4lpdqOZZUP7kBYj-2" target="R-SLLqxYbJGO4KXh2v5R-1" edge="1">
          <mxGeometry relative="1" as="geometry" />
        </mxCell>
        <mxCell id="ZRoRT4lpdqOZZUP7kBYj-2" value="declaration of variables&lt;div&gt;&lt;div&gt;N, K&lt;/div&gt;&lt;/div&gt;" style="rounded=0;whiteSpace=wrap;html=1;" parent="1" vertex="1">
          <mxGeometry x="199.89" y="130" width="160" height="80" as="geometry" />
        </mxCell>
        <mxCell id="R-SLLqxYbJGO4KXh2v5R-5" value="" style="edgeStyle=orthogonalEdgeStyle;rounded=0;orthogonalLoop=1;jettySize=auto;html=1;" parent="1" source="R-SLLqxYbJGO4KXh2v5R-1" target="R-SLLqxYbJGO4KXh2v5R-4" edge="1">
          <mxGeometry relative="1" as="geometry" />
        </mxCell>
        <mxCell id="R-SLLqxYbJGO4KXh2v5R-1" value="input N, K" style="shape=parallelogram;perimeter=parallelogramPerimeter;whiteSpace=wrap;html=1;fixedSize=1;" parent="1" vertex="1">
          <mxGeometry x="219.89" y="240" width="120" height="60" as="geometry" />
        </mxCell>
        <mxCell id="R-SLLqxYbJGO4KXh2v5R-11" value="" style="edgeStyle=orthogonalEdgeStyle;rounded=0;orthogonalLoop=1;jettySize=auto;html=1;" parent="1" source="R-SLLqxYbJGO4KXh2v5R-3" target="R-SLLqxYbJGO4KXh2v5R-9" edge="1">
          <mxGeometry relative="1" as="geometry" />
        </mxCell>
        <mxCell id="R-SLLqxYbJGO4KXh2v5R-3" value="input N elements&amp;nbsp;&lt;div&gt;to teeth_array using for loop&lt;/div&gt;" style="shape=parallelogram;perimeter=parallelogramPerimeter;whiteSpace=wrap;html=1;fixedSize=1;" parent="1" vertex="1">
          <mxGeometry x="169.89" y="420" width="220" height="90" as="geometry" />
        </mxCell>
        <mxCell id="R-SLLqxYbJGO4KXh2v5R-7" value="" style="edgeStyle=orthogonalEdgeStyle;rounded=0;orthogonalLoop=1;jettySize=auto;html=1;" parent="1" source="R-SLLqxYbJGO4KXh2v5R-4" target="R-SLLqxYbJGO4KXh2v5R-3" edge="1">
          <mxGeometry relative="1" as="geometry" />
        </mxCell>
        <mxCell id="R-SLLqxYbJGO4KXh2v5R-4" value="declare dynamic teeth_array" style="rounded=0;whiteSpace=wrap;html=1;" parent="1" vertex="1">
          <mxGeometry x="219.89" y="330" width="120" height="60" as="geometry" />
        </mxCell>
        <mxCell id="R-SLLqxYbJGO4KXh2v5R-14" value="" style="edgeStyle=orthogonalEdgeStyle;rounded=0;orthogonalLoop=1;jettySize=auto;html=1;" parent="1" source="R-SLLqxYbJGO4KXh2v5R-9" target="R-SLLqxYbJGO4KXh2v5R-12" edge="1">
          <mxGeometry relative="1" as="geometry" />
        </mxCell>
        <mxCell id="R-SLLqxYbJGO4KXh2v5R-9" value="initialize integer variables&lt;br&gt;current_number = 0 maximum_number = 0" style="rounded=0;whiteSpace=wrap;html=1;" parent="1" vertex="1">
          <mxGeometry x="209.89" y="540" width="140" height="60" as="geometry" />
        </mxCell>
        <mxCell id="R-SLLqxYbJGO4KXh2v5R-17" value="" style="edgeStyle=orthogonalEdgeStyle;rounded=0;orthogonalLoop=1;jettySize=auto;html=1;" parent="1" source="R-SLLqxYbJGO4KXh2v5R-12" target="R-SLLqxYbJGO4KXh2v5R-16" edge="1">
          <mxGeometry relative="1" as="geometry" />
        </mxCell>
        <mxCell id="R-SLLqxYbJGO4KXh2v5R-12" value="int i = 0" style="rounded=0;whiteSpace=wrap;html=1;" parent="1" vertex="1">
          <mxGeometry x="219.89" y="640" width="120" height="60" as="geometry" />
        </mxCell>
        <mxCell id="R-SLLqxYbJGO4KXh2v5R-23" style="edgeStyle=orthogonalEdgeStyle;rounded=0;orthogonalLoop=1;jettySize=auto;html=1;entryX=0.5;entryY=0;entryDx=0;entryDy=0;exitX=0;exitY=0.5;exitDx=0;exitDy=0;" parent="1" source="R-SLLqxYbJGO4KXh2v5R-13" target="R-SLLqxYbJGO4KXh2v5R-20" edge="1">
          <mxGeometry relative="1" as="geometry" />
        </mxCell>
        <mxCell id="R-SLLqxYbJGO4KXh2v5R-27" value="&lt;font style=&quot;font-size: 18px;&quot;&gt;Yes&lt;/font&gt;" style="edgeLabel;html=1;align=center;verticalAlign=middle;resizable=0;points=[];" parent="R-SLLqxYbJGO4KXh2v5R-23" vertex="1" connectable="0">
          <mxGeometry x="-0.4673" relative="1" as="geometry">
            <mxPoint x="10" as="offset" />
          </mxGeometry>
        </mxCell>
        <mxCell id="R-SLLqxYbJGO4KXh2v5R-25" style="edgeStyle=orthogonalEdgeStyle;rounded=0;orthogonalLoop=1;jettySize=auto;html=1;entryX=0.5;entryY=0;entryDx=0;entryDy=0;exitX=1;exitY=0.5;exitDx=0;exitDy=0;" parent="1" source="R-SLLqxYbJGO4KXh2v5R-13" target="R-SLLqxYbJGO4KXh2v5R-22" edge="1">
          <mxGeometry relative="1" as="geometry" />
        </mxCell>
        <mxCell id="R-SLLqxYbJGO4KXh2v5R-28" value="&lt;font style=&quot;font-size: 18px;&quot;&gt;No&lt;/font&gt;" style="edgeLabel;html=1;align=center;verticalAlign=middle;resizable=0;points=[];" parent="R-SLLqxYbJGO4KXh2v5R-25" vertex="1" connectable="0">
          <mxGeometry x="-0.8112" relative="1" as="geometry">
            <mxPoint x="28" as="offset" />
          </mxGeometry>
        </mxCell>
        <mxCell id="R-SLLqxYbJGO4KXh2v5R-13" value="teeth_array[i] &amp;gt;= K" style="rhombus;whiteSpace=wrap;html=1;" parent="1" vertex="1">
          <mxGeometry x="144.89" y="980" width="270" height="160" as="geometry" />
        </mxCell>
        <mxCell id="R-SLLqxYbJGO4KXh2v5R-18" style="edgeStyle=orthogonalEdgeStyle;rounded=0;orthogonalLoop=1;jettySize=auto;html=1;entryX=0.5;entryY=0;entryDx=0;entryDy=0;" parent="1" source="R-SLLqxYbJGO4KXh2v5R-16" target="R-SLLqxYbJGO4KXh2v5R-13" edge="1">
          <mxGeometry relative="1" as="geometry" />
        </mxCell>
        <mxCell id="R-SLLqxYbJGO4KXh2v5R-19" value="&lt;font style=&quot;font-size: 18px;&quot;&gt;Yes&lt;/font&gt;" style="edgeLabel;html=1;align=center;verticalAlign=middle;resizable=0;points=[];" parent="R-SLLqxYbJGO4KXh2v5R-18" vertex="1" connectable="0">
          <mxGeometry x="-0.2043" y="2" relative="1" as="geometry">
            <mxPoint x="-2" y="5" as="offset" />
          </mxGeometry>
        </mxCell>
        <mxCell id="R-SLLqxYbJGO4KXh2v5R-36" style="edgeStyle=orthogonalEdgeStyle;rounded=0;orthogonalLoop=1;jettySize=auto;html=1;entryX=0.5;entryY=0;entryDx=0;entryDy=0;" parent="1" source="R-SLLqxYbJGO4KXh2v5R-16" target="R-SLLqxYbJGO4KXh2v5R-35" edge="1">
          <mxGeometry relative="1" as="geometry" />
        </mxCell>
        <mxCell id="R-SLLqxYbJGO4KXh2v5R-37" value="&lt;font style=&quot;font-size: 18px;&quot;&gt;No&lt;/font&gt;" style="edgeLabel;html=1;align=center;verticalAlign=middle;resizable=0;points=[];" parent="R-SLLqxYbJGO4KXh2v5R-36" vertex="1" connectable="0">
          <mxGeometry x="-0.4489" y="4" relative="1" as="geometry">
            <mxPoint x="-17" y="-4" as="offset" />
          </mxGeometry>
        </mxCell>
        <mxCell id="R-SLLqxYbJGO4KXh2v5R-16" value="i &amp;lt; N" style="rhombus;whiteSpace=wrap;html=1;" parent="1" vertex="1">
          <mxGeometry x="179.83999999999997" y="770" width="200.11" height="120" as="geometry" />
        </mxCell>
        <mxCell id="R-SLLqxYbJGO4KXh2v5R-26" value="" style="edgeStyle=orthogonalEdgeStyle;rounded=0;orthogonalLoop=1;jettySize=auto;html=1;" parent="1" source="R-SLLqxYbJGO4KXh2v5R-20" target="R-SLLqxYbJGO4KXh2v5R-21" edge="1">
          <mxGeometry relative="1" as="geometry" />
        </mxCell>
        <mxCell id="R-SLLqxYbJGO4KXh2v5R-20" value="increment current_number" style="rounded=0;whiteSpace=wrap;html=1;" parent="1" vertex="1">
          <mxGeometry x="39.999999999999986" y="1190" width="120" height="60" as="geometry" />
        </mxCell>
        <mxCell id="jXDcrHOBizw97HOo9644-4" style="edgeStyle=orthogonalEdgeStyle;rounded=0;orthogonalLoop=1;jettySize=auto;html=1;entryX=0.5;entryY=0;entryDx=0;entryDy=0;" edge="1" parent="1" source="R-SLLqxYbJGO4KXh2v5R-21" target="jXDcrHOBizw97HOo9644-1">
          <mxGeometry relative="1" as="geometry">
            <Array as="points">
              <mxPoint x="100" y="1410" />
              <mxPoint x="280" y="1410" />
            </Array>
          </mxGeometry>
        </mxCell>
        <mxCell id="R-SLLqxYbJGO4KXh2v5R-21" value="set maximum_number to maximum of current_number and maximum_number" style="rounded=0;whiteSpace=wrap;html=1;" parent="1" vertex="1">
          <mxGeometry x="22.439999999999998" y="1300" width="155.11" height="80" as="geometry" />
        </mxCell>
        <mxCell id="jXDcrHOBizw97HOo9644-5" style="edgeStyle=orthogonalEdgeStyle;rounded=0;orthogonalLoop=1;jettySize=auto;html=1;" edge="1" parent="1" source="R-SLLqxYbJGO4KXh2v5R-22">
          <mxGeometry relative="1" as="geometry">
            <mxPoint x="280" y="1440" as="targetPoint" />
            <Array as="points">
              <mxPoint x="465" y="1410" />
              <mxPoint x="281" y="1410" />
            </Array>
          </mxGeometry>
        </mxCell>
        <mxCell id="R-SLLqxYbJGO4KXh2v5R-22" value="set current_number to 0" style="rounded=0;whiteSpace=wrap;html=1;" parent="1" vertex="1">
          <mxGeometry x="389.89" y="1240" width="150" height="60" as="geometry" />
        </mxCell>
        <mxCell id="R-SLLqxYbJGO4KXh2v5R-29" style="edgeStyle=orthogonalEdgeStyle;rounded=0;orthogonalLoop=1;jettySize=auto;html=1;exitX=0.5;exitY=1;exitDx=0;exitDy=0;" parent="1" source="R-SLLqxYbJGO4KXh2v5R-22" target="R-SLLqxYbJGO4KXh2v5R-22" edge="1">
          <mxGeometry relative="1" as="geometry" />
        </mxCell>
        <mxCell id="R-SLLqxYbJGO4KXh2v5R-39" value="" style="edgeStyle=orthogonalEdgeStyle;rounded=0;orthogonalLoop=1;jettySize=auto;html=1;" parent="1" source="R-SLLqxYbJGO4KXh2v5R-35" target="R-SLLqxYbJGO4KXh2v5R-38" edge="1">
          <mxGeometry relative="1" as="geometry" />
        </mxCell>
        <mxCell id="R-SLLqxYbJGO4KXh2v5R-35" value="output maximum_number" style="shape=parallelogram;perimeter=parallelogramPerimeter;whiteSpace=wrap;html=1;fixedSize=1;" parent="1" vertex="1">
          <mxGeometry x="-174.22000000000003" y="1210" width="120" height="60" as="geometry" />
        </mxCell>
        <mxCell id="R-SLLqxYbJGO4KXh2v5R-41" value="" style="edgeStyle=orthogonalEdgeStyle;rounded=0;orthogonalLoop=1;jettySize=auto;html=1;" parent="1" source="R-SLLqxYbJGO4KXh2v5R-38" target="R-SLLqxYbJGO4KXh2v5R-40" edge="1">
          <mxGeometry relative="1" as="geometry" />
        </mxCell>
        <mxCell id="R-SLLqxYbJGO4KXh2v5R-38" value="delete[] teeth_array&lt;div&gt;&lt;span style=&quot;text-align: start; text-indent: -64px; background-color: initial;&quot;&gt;(&lt;/span&gt;&lt;span style=&quot;text-align: start; text-indent: -64px; font-family: DejaVuSans, &amp;quot;DejaVu Sans&amp;quot;, arial, sans-serif; font-size: 12.8px; font-variant-ligatures: no-common-ligatures; background-color: rgb(255, 255, 255);&quot;&gt;deallocate&amp;nbsp;&lt;/span&gt;&lt;span style=&quot;text-align: start; text-indent: -64px; background-color: initial; font-size: 12.8px; font-variant-ligatures: no-common-ligatures;&quot;&gt;&lt;font face=&quot;DejaVuSans, DejaVu Sans, arial, sans-serif&quot;&gt;the memory&lt;/font&gt;&lt;/span&gt;&lt;/div&gt;&lt;div&gt;&lt;span style=&quot;text-align: start; text-indent: -64px; background-color: initial; font-size: 12.8px; font-variant-ligatures: no-common-ligatures;&quot;&gt;&lt;font face=&quot;DejaVuSans, DejaVu Sans, arial, sans-serif&quot;&gt;previously associated with the array&lt;/font&gt;&lt;/span&gt;&lt;span style=&quot;text-align: start; text-indent: -64px; background-color: initial;&quot;&gt;)&lt;/span&gt;&lt;/div&gt;" style="rounded=0;whiteSpace=wrap;html=1;" parent="1" vertex="1">
          <mxGeometry x="-228" y="1300" width="227.56" height="90" as="geometry" />
        </mxCell>
        <mxCell id="R-SLLqxYbJGO4KXh2v5R-40" value="&lt;font style=&quot;font-size: 24px;&quot;&gt;end&lt;/font&gt;" style="ellipse;whiteSpace=wrap;html=1;" parent="1" vertex="1">
          <mxGeometry x="-174.22000000000003" y="1430" width="120" height="80" as="geometry" />
        </mxCell>
        <mxCell id="jXDcrHOBizw97HOo9644-6" style="edgeStyle=orthogonalEdgeStyle;rounded=0;orthogonalLoop=1;jettySize=auto;html=1;" edge="1" parent="1">
          <mxGeometry relative="1" as="geometry">
            <mxPoint x="280" y="730" as="targetPoint" />
            <mxPoint x="340" y="1470" as="sourcePoint" />
            <Array as="points">
              <mxPoint x="580" y="1470" />
              <mxPoint x="580" y="730" />
            </Array>
          </mxGeometry>
        </mxCell>
        <mxCell id="jXDcrHOBizw97HOo9644-1" value="increment i" style="rounded=0;whiteSpace=wrap;html=1;" vertex="1" parent="1">
          <mxGeometry x="219.89" y="1440" width="120" height="60" as="geometry" />
        </mxCell>
      </root>
    </mxGraphModel>
  </diagram>
</mxfile>
